<?xml version="1.0" encoding="utf-8"?>
<!-- Generator: Adobe Illustrator 19.1.0, SVG Export Plug-In . SVG Version: 6.00 Build 0)  -->
<svg version="1.1"
	 id="svg2" xmlns:cc="http://creativecommons.org/ns#" xmlns:inkscape="http://www.inkscape.org/namespaces/inkscape" xmlns:svg="http://www.w3.org/2000/svg" xmlns:dc="http://purl.org/dc/elements/1.1/" xmlns:rdf="http://www.w3.org/1999/02/22-rdf-syntax-ns#"
	 xmlns="http://www.w3.org/2000/svg" xmlns:xlink="http://www.w3.org/1999/xlink" x="0px" y="0px" width="408.7px" height="408.7px"
	 viewBox="-305 722 408.7 408.7" style="enable-background:new -305 722 408.7 408.7;" xml:space="preserve">
<style type="text/css">
	.st0{fill:#F8981C;}
</style>
<g>
	<path id="path22" inkscape:connector-curvature="0" class="st0" d="M-192.7,873.3c-0.4-0.1-0.8-0.3-1.1-0.6c-1-1-1-2.6,0-3.5h50.4
		c1,1,1,2.6,0,3.5c-0.4,0.4-0.8,0.6-1.3,0.7l-9.2,1.5c-3,0.6-5.3,3.2-5.3,6.4v85.4c0,7.5,1.4,16.9,3.5,23.8
		c2.2,6.9,8.4,14.4,16,17.6c7.3,3.1,16.6,4.9,26.7,4.9c10.6,0,20.3-2.1,27.8-5.4c7.4-3.3,13.1-9.7,15.5-17.5
		c2.1-6.8,3.3-14.8,3.3-23.3c0,0,0-75.7,0-99.3c0-21.5,10.6-28.6,27.1-28.6c16.6,0,29.8,0,29.8,0c1.1,1.1,1.1,2.9,0,4
		c-0.4,0.4-1,0.7-1.5,0.8l-10.4,1.4c-6.1,1.1-7.8,3.5-7.8,9.9l-0.1,11.3v102.1c0,6.5-0.6,12.9-1.6,18.7c-3.4,19.1-18,34.3-36.7,38.7
		c-11.3,2.7-24.1,4.2-37.7,4.2c-13.6,0-26.5-1.5-37.8-4.2c-18.1-4.5-32.3-19.2-36-37.6c-1.3-6.5-2.1-13.7-2.1-21.1l0-85.8
		c0-3.1-2.2-5.7-5.1-6.4"/>
	<path class="st0" d="M-100.7,758.1c44.9,0,87.2,17.5,119,49.3c31.8,31.8,49.3,74,49.3,119c0,44.9-17.5,87.2-49.3,119
		c-31.8,31.8-74,49.3-119,49.3c-44.9,0-87.2-17.5-118.9-49.3c-31.8-31.8-49.3-74-49.3-119c0-44.9,17.5-87.2,49.3-119
		C-187.9,775.6-145.6,758.1-100.7,758.1 M-100.7,722C-213.5,722-305,813.5-305,926.3c0,112.9,91.5,204.3,204.3,204.3
		c112.9,0,204.3-91.5,204.3-204.3C103.7,813.5,12.2,722-100.7,722L-100.7,722z"/>
</g>
</svg>
